<svg width="217" height="48" viewBox="0 0 217 48" fill="none" xmlns="http://www.w3.org/2000/svg">
<path d="M216.47 27.0303C216.47 29.6212 215.973 31.8068 214.979 33.5871C213.985 35.3598 212.644 36.7045 210.955 37.6212C209.266 38.5303 207.383 38.9848 205.306 38.9848C203.214 38.9848 201.323 38.5265 199.634 37.6098C197.953 36.6856 196.615 35.3371 195.622 33.5644C194.635 31.7841 194.142 29.606 194.142 27.0303C194.142 24.4394 194.635 22.2576 195.622 20.4848C196.615 18.7045 197.953 17.3598 199.634 16.4507C201.323 15.5341 203.214 15.0757 205.306 15.0757C207.383 15.0757 209.266 15.5341 210.955 16.4507C212.644 17.3598 213.985 18.7045 214.979 20.4848C215.973 22.2576 216.47 24.4394 216.47 27.0303ZM210.058 27.0303C210.058 25.6364 209.875 24.4621 209.509 23.5076C209.151 22.5454 208.616 21.8182 207.906 21.3257C207.204 20.8257 206.337 20.5757 205.306 20.5757C204.275 20.5757 203.404 20.8257 202.694 21.3257C201.992 21.8182 201.458 22.5454 201.091 23.5076C200.733 24.4621 200.553 25.6364 200.553 27.0303C200.553 28.4242 200.733 29.6023 201.091 30.5644C201.458 31.5189 201.992 32.2462 202.694 32.7462C203.404 33.2386 204.275 33.4848 205.306 33.4848C206.337 33.4848 207.204 33.2386 207.906 32.7462C208.616 32.2462 209.151 31.5189 209.509 30.5644C209.875 29.6023 210.058 28.4242 210.058 27.0303Z" fill="#FF3D00"/>
<path d="M170.559 38.6666V15.3939H176.791V24.4848H185.041V15.3939H191.273V38.6666H185.041V29.5757H176.791V38.6666H170.559Z" fill="#FF3D00"/>
<path d="M147.749 15.3939H153.981V27.5757H154.16L162.32 15.3939H167.611V38.6666H161.379V26.4394H161.244L152.95 38.6666H147.749V15.3939Z" fill="#FF3D00"/>
<path d="M137.145 38.2727L130.106 28.8636H129.232V38.2727H123V15H129.232V23.7727H130.039L136.63 15H144.476L135.733 26.1818L144.969 38.2727H137.145Z" fill="#FF3D00"/>
<path d="M121.224 27.0303C121.224 29.6212 120.727 31.8068 119.733 33.5871C118.739 35.3598 117.398 36.7045 115.709 37.6212C114.02 38.5303 112.137 38.9848 110.06 38.9848C107.968 38.9848 106.077 38.5265 104.388 37.6098C102.707 36.6856 101.369 35.3371 100.376 33.5644C99.3892 31.7841 98.896 29.606 98.896 27.0303C98.896 24.4394 99.3892 22.2576 100.376 20.4848C101.369 18.7045 102.707 17.3598 104.388 16.4507C106.077 15.5341 107.968 15.0757 110.06 15.0757C112.137 15.0757 114.02 15.5341 115.709 16.4507C117.398 17.3598 118.739 18.7045 119.733 20.4848C120.727 22.2576 121.224 24.4394 121.224 27.0303ZM114.812 27.0303C114.812 25.6364 114.629 24.4621 114.263 23.5076C113.904 22.5454 113.37 21.8182 112.66 21.3257C111.958 20.8257 111.091 20.5757 110.06 20.5757C109.029 20.5757 108.158 20.8257 107.448 21.3257C106.746 21.8182 106.212 22.5454 105.845 23.5076C105.487 24.4621 105.307 25.6364 105.307 27.0303C105.307 28.4242 105.487 29.6023 105.845 30.5644C106.212 31.5189 106.746 32.2462 107.448 32.7462C108.158 33.2386 109.029 33.4848 110.06 33.4848C111.091 33.4848 111.958 33.2386 112.66 32.7462C113.37 32.2462 113.904 31.5189 114.263 30.5644C114.629 29.6023 114.812 28.4242 114.812 27.0303Z" fill="white"/>
<path d="M78.2725 38.6666V15.3939H88.1809C89.8847 15.3939 91.3754 15.7348 92.6532 16.4166C93.931 17.0985 94.9248 18.0568 95.6347 19.2916C96.3446 20.5265 96.6995 21.9697 96.6995 23.6212C96.6995 25.2879 96.3334 26.731 95.6011 27.9507C94.8762 29.1704 93.8563 30.1098 92.5411 30.7689C91.2334 31.428 89.7053 31.7576 87.9568 31.7576H82.0386V26.8485H86.7014C87.4337 26.8485 88.0576 26.7197 88.5732 26.4621C89.0963 26.197 89.4961 25.822 89.7726 25.3371C90.0565 24.8523 90.1985 24.2803 90.1985 23.6212C90.1985 22.9545 90.0565 22.3863 89.7726 21.9166C89.4961 21.4394 89.0963 21.0757 88.5732 20.8257C88.0576 20.5682 87.4337 20.4394 86.7014 20.4394H84.5045V38.6666H78.2725Z" fill="white"/>
<path d="M74.2848 15.3939V38.6666H68.1424V20.3939H60.386V38.6666H54.2437V15.3939H74.2848Z" fill="white"/>
<path d="M31.0703 18H7.39762C4.94623 18 2.95898 20.0147 2.95898 22.5V33C2.95898 35.4853 4.94623 37.5 7.39762 37.5H31.0703C33.5217 37.5 35.509 35.4853 35.509 33V22.5C35.509 20.0147 33.5217 18 31.0703 18Z" fill="#FF3D00"/>
<path d="M44.3861 34.5L35.5088 30V25.5L44.3861 21V34.5Z" fill="#FF3D00"/>
<path d="M26.6316 15C29.9001 15 32.5497 12.3137 32.5497 9C32.5497 5.68629 29.9001 3 26.6316 3C23.363 3 20.7134 5.68629 20.7134 9C20.7134 12.3137 23.363 15 26.6316 15Z" fill="#FF3D00"/>
<path d="M11.8361 15C14.2875 15 16.2747 12.9853 16.2747 10.5C16.2747 8.01472 14.2875 6 11.8361 6C9.38471 6 7.39746 8.01472 7.39746 10.5C7.39746 12.9853 9.38471 15 11.8361 15Z" fill="#FF3D00"/>
<path d="M44.7754 20.3625C44.6681 20.2955 44.5457 20.2572 44.4197 20.2515C44.2938 20.2457 44.1685 20.2726 44.0556 20.3295L36.2488 24.2865V22.5C36.2472 21.1081 35.7011 19.7737 34.7303 18.7894C33.7595 17.8052 32.4433 17.2516 31.0704 17.25H7.39765C6.02473 17.2516 4.70849 17.8052 3.73769 18.7894C2.76689 19.7737 2.2208 21.1081 2.21924 22.5V33C2.2208 34.3919 2.76689 35.7263 3.73769 36.7106C4.70849 37.6948 6.02473 38.2484 7.39765 38.25H17.4482L11.3133 44.4697C11.1785 44.6112 11.1039 44.8007 11.1056 44.9973C11.1073 45.194 11.1851 45.3821 11.3223 45.5211C11.4594 45.6602 11.645 45.739 11.8389 45.7408C12.0329 45.7425 12.2198 45.6669 12.3593 45.5303L19.234 38.5605L26.1087 45.5303C26.2482 45.6669 26.4351 45.7425 26.6291 45.7408C26.823 45.739 27.0086 45.6602 27.1458 45.5211C27.2829 45.3821 27.3607 45.194 27.3624 44.9973C27.3641 44.8007 27.2895 44.6112 27.1548 44.4697L21.0198 38.25H31.0704C32.4433 38.2484 33.7595 37.6948 34.7303 36.7106C35.7011 35.7263 36.2472 34.3919 36.2488 33V31.2135L44.0556 35.1713C44.1684 35.2284 44.2938 35.2554 44.4198 35.2496C44.5457 35.2438 44.6682 35.2055 44.7754 35.1382C44.8827 35.0709 44.9712 34.977 45.0326 34.8653C45.0939 34.7536 45.1261 34.6279 45.1261 34.5V21C45.126 20.8723 45.0938 20.7467 45.0324 20.6351C44.971 20.5235 44.8826 20.4297 44.7754 20.3625ZM34.7692 33C34.7681 33.9942 34.378 34.9473 33.6846 35.6503C32.9912 36.3533 32.051 36.7488 31.0704 36.75H7.39765C6.41701 36.7488 5.47687 36.3533 4.78345 35.6503C4.09004 34.9473 3.69996 33.9942 3.69878 33V22.5C3.69996 21.5058 4.09004 20.5527 4.78345 19.8497C5.47687 19.1467 6.41701 18.7512 7.39765 18.75H31.0704C32.051 18.7512 32.9912 19.1467 33.6846 19.8497C34.378 20.5527 34.7681 21.5058 34.7692 22.5V33ZM43.6465 33.2865L36.2488 29.5365V25.9635L43.6465 22.2135V33.2865ZM26.6317 15.75C27.9486 15.75 29.2358 15.3541 30.3307 14.6124C31.4256 13.8707 32.279 12.8165 32.7829 11.5831C33.2868 10.3497 33.4187 8.99252 33.1618 7.68314C32.9049 6.37377 32.2708 5.17104 31.3396 4.22703C30.4085 3.28303 29.2222 2.64015 27.9306 2.3797C26.6391 2.11925 25.3004 2.25292 24.0839 2.76382C22.8673 3.27471 21.8274 4.13987 21.0959 5.2499C20.3643 6.35994 19.9738 7.66498 19.9738 9C19.9757 10.7896 20.6778 12.5053 21.926 13.7708C23.1742 15.0362 24.8665 15.748 26.6317 15.75ZM26.6317 3.75C27.6559 3.75 28.6571 4.05791 29.5087 4.63479C30.3603 5.21166 31.024 6.0316 31.416 6.99091C31.8079 7.95023 31.9105 9.00583 31.7107 10.0242C31.5108 11.0426 31.0176 11.9781 30.2934 12.7123C29.5692 13.4465 28.6465 13.9466 27.642 14.1491C26.6375 14.3517 25.5963 14.2477 24.6501 13.8504C23.7038 13.453 22.8951 12.7801 22.3261 11.9167C21.757 11.0534 21.4533 10.0384 21.4533 9C21.4549 7.6081 22.001 6.27367 22.9718 5.28945C23.9426 4.30522 25.2588 3.75159 26.6317 3.75ZM11.8363 15.75C12.8605 15.75 13.8617 15.4421 14.7133 14.8652C15.5648 14.2883 16.2286 13.4684 16.6205 12.5091C17.0125 11.5498 17.115 10.4942 16.9152 9.47578C16.7154 8.45738 16.2222 7.52192 15.498 6.78769C14.7738 6.05347 13.8511 5.55345 12.8465 5.35088C11.842 5.14831 10.8008 5.25228 9.85459 5.64964C8.90836 6.047 8.09961 6.7199 7.53059 7.58326C6.96158 8.44662 6.65788 9.46165 6.65788 10.5C6.65944 11.8919 7.20553 13.2263 8.17633 14.2106C9.14713 15.1948 10.4634 15.7484 11.8363 15.75ZM11.8363 6.75C12.5679 6.75 13.283 6.96994 13.8913 7.38199C14.4995 7.79405 14.9736 8.37972 15.2536 9.06494C15.5335 9.75016 15.6068 10.5042 15.4641 11.2316C15.3214 11.959 14.9691 12.6272 14.4518 13.1517C13.9345 13.6761 13.2754 14.0333 12.5579 14.1779C11.8404 14.3226 11.0967 14.2484 10.4208 13.9646C9.74491 13.6807 9.16723 13.2001 8.76079 12.5834C8.35436 11.9667 8.13742 11.2417 8.13742 10.5C8.1386 9.50581 8.52867 8.55267 9.22209 7.84967C9.91551 7.14666 10.8556 6.75119 11.8363 6.75Z" fill="white"/>
</svg>
