<svg width="287" height="62" viewBox="0 0 287 62" fill="none" xmlns="http://www.w3.org/2000/svg">
<path d="M286.298 34.9142C286.298 38.2608 285.641 41.0839 284.327 43.3834C283.012 45.6732 281.238 47.4101 279.005 48.5941C276.771 49.7684 274.281 50.3555 271.533 50.3555C268.766 50.3555 266.266 49.7635 264.032 48.5794C261.809 47.3856 260.04 45.6438 258.725 43.3541C257.421 41.0545 256.768 38.2412 256.768 34.9142C256.768 31.5676 257.421 28.7494 258.725 26.4596C260.04 24.1601 261.809 22.4232 264.032 21.2489C266.266 20.0649 268.766 19.4729 271.533 19.4729C274.281 19.4729 276.771 20.0649 279.005 21.2489C281.238 22.4232 283.012 24.1601 284.327 26.4596C285.641 28.7494 286.298 31.5676 286.298 34.9142ZM277.819 34.9142C277.819 33.1137 277.577 31.597 277.093 30.364C276.618 29.1213 275.912 28.1819 274.973 27.5458C274.044 26.9 272.897 26.5771 271.533 26.5771C270.17 26.5771 269.018 26.9 268.079 27.5458C267.15 28.1819 266.444 29.1213 265.959 30.364C265.485 31.597 265.248 33.1137 265.248 34.9142C265.248 36.7147 265.485 38.2363 265.959 39.4791C266.444 40.712 267.15 41.6514 268.079 42.2972C269.018 42.9333 270.17 43.2513 271.533 43.2513C272.897 43.2513 274.044 42.9333 274.973 42.2972C275.912 41.6514 276.618 40.712 277.093 39.4791C277.577 38.2363 277.819 36.7147 277.819 34.9142Z" fill="#FF3D00"/>
<path d="M225.578 49.9445V19.8839H233.82V31.6263H244.731V19.8839H252.973V49.9445H244.731V38.2021H233.82V49.9445H225.578Z" fill="#FF3D00"/>
<path d="M195.41 19.8839H203.653V35.6188H203.89L214.682 19.8839H221.679V49.9445H213.437V34.151H213.259L202.289 49.9445H195.41V19.8839Z" fill="#FF3D00"/>
<path d="M182.85 49.9445L173.541 37.7911H172.384V49.9445H164.142V19.8839H172.384V31.2154H173.452L182.168 19.8839H192.545L180.982 34.3271L193.198 49.9445H182.85Z" fill="#FF3D00"/>
<path d="M160.328 34.9142C160.328 38.2608 159.671 41.0839 158.357 43.3834C157.042 45.6732 155.268 47.4101 153.035 48.5941C150.801 49.7684 148.311 50.3555 145.563 50.3555C142.796 50.3555 140.296 49.7635 138.062 48.5794C135.838 47.3856 134.069 45.6438 132.755 43.3541C131.45 41.0545 130.798 38.2412 130.798 34.9142C130.798 31.5676 131.45 28.7494 132.755 26.4596C134.069 24.1601 135.838 22.4232 138.062 21.2489C140.296 20.0649 142.796 19.4729 145.563 19.4729C148.311 19.4729 150.801 20.0649 153.035 21.2489C155.268 22.4232 157.042 24.1601 158.357 26.4596C159.671 28.7494 160.328 31.5676 160.328 34.9142ZM151.849 34.9142C151.849 33.1137 151.607 31.597 151.122 30.364C150.648 29.1213 149.941 28.1819 149.002 27.5458C148.073 26.9 146.927 26.5771 145.563 26.5771C144.199 26.5771 143.048 26.9 142.109 27.5458C141.18 28.1819 140.473 29.1213 139.989 30.364C139.515 31.597 139.278 33.1137 139.278 34.9142C139.278 36.7147 139.515 38.2363 139.989 39.4791C140.473 40.712 141.18 41.6514 142.109 42.2972C143.048 42.9333 144.199 43.2513 145.563 43.2513C146.927 43.2513 148.073 42.9333 149.002 42.2972C149.941 41.6514 150.648 40.712 151.122 39.4791C151.607 38.2363 151.849 36.7147 151.849 34.9142Z" fill="white"/>
<path d="M103.521 49.9445V19.8839H116.626C118.879 19.8839 120.851 20.3243 122.541 21.2049C124.231 22.0856 125.545 23.3235 126.484 24.9185C127.423 26.5135 127.893 28.3776 127.893 30.5108C127.893 32.6636 127.408 34.5277 126.44 36.1031C125.481 37.6786 124.132 38.892 122.393 39.7433C120.663 40.5946 118.642 41.0203 116.33 41.0203H108.502V34.6794H114.669C115.638 34.6794 116.463 34.513 117.145 34.1803C117.837 33.8378 118.365 33.3534 118.731 32.7272C119.107 32.1009 119.294 31.3621 119.294 30.5108C119.294 29.6497 119.107 28.9158 118.731 28.3091C118.365 27.6926 117.837 27.2229 117.145 26.9C116.463 26.5673 115.638 26.401 114.669 26.401H111.764V49.9445H103.521Z" fill="white"/>
<path d="M98.2474 19.8839V49.9445H90.1237V26.3422H79.8652V49.9445H71.7415V19.8839H98.2474Z" fill="white"/>
<path d="M41.0934 23.25H9.78427C6.54211 23.25 3.91382 25.8523 3.91382 29.0625V42.625C3.91382 45.8352 6.54211 48.4375 9.78427 48.4375H41.0934C44.3355 48.4375 46.9638 45.8352 46.9638 42.625V29.0625C46.9638 25.8523 44.3355 23.25 41.0934 23.25Z" fill="#FF3D00"/>
<path d="M58.7048 44.5625L46.9639 38.75V32.9375L58.7048 27.125V44.5625Z" fill="#FF3D00"/>
<path d="M35.223 19.375C39.5459 19.375 43.0503 15.9052 43.0503 11.625C43.0503 7.34479 39.5459 3.875 35.223 3.875C30.9001 3.875 27.3958 7.34479 27.3958 11.625C27.3958 15.9052 30.9001 19.375 35.223 19.375Z" fill="#FF3D00"/>
<path d="M15.6546 19.375C18.8968 19.375 21.5251 16.7727 21.5251 13.5625C21.5251 10.3523 18.8968 7.75 15.6546 7.75C12.4125 7.75 9.78418 10.3523 9.78418 13.5625C9.78418 16.7727 12.4125 19.375 15.6546 19.375Z" fill="#FF3D00"/>
<path d="M59.2193 26.3016C59.0773 26.215 58.9154 26.1656 58.7488 26.1582C58.5823 26.1507 58.4165 26.1854 58.2673 26.2589L47.9421 31.3701V29.0625C47.9401 27.2646 47.2178 25.541 45.9339 24.2697C44.6499 22.9984 42.9091 22.2833 41.0933 22.2813H9.78417C7.96837 22.2833 6.22754 22.9984 4.94358 24.2697C3.65961 25.541 2.93737 27.2646 2.9353 29.0625V42.625C2.93737 44.4229 3.65961 46.1465 4.94358 47.4178C6.22754 48.6891 7.96837 49.4042 9.78417 49.4063H23.0768L14.9629 57.4401C14.7847 57.6228 14.686 57.8675 14.6883 58.1215C14.6905 58.3755 14.7934 58.6185 14.9748 58.7981C15.1562 58.9777 15.4016 59.0796 15.6581 59.0818C15.9147 59.084 16.1618 58.9864 16.3464 58.8099L25.4387 49.8073L34.5311 58.8099C34.7156 58.9864 34.9627 59.084 35.2193 59.0818C35.4758 59.0796 35.7212 58.9777 35.9026 58.7981C36.084 58.6185 36.1869 58.3755 36.1892 58.1215C36.1914 57.8675 36.0928 57.6228 35.9145 57.4401L27.8006 49.4063H41.0933C42.9091 49.4042 44.6499 48.6891 45.9339 47.4178C47.2178 46.1465 47.9401 44.4229 47.9421 42.625V40.3174L58.2673 45.4295C58.4165 45.5034 58.5823 45.5382 58.7489 45.5307C58.9155 45.5232 59.0774 45.4737 59.2193 45.3868C59.3611 45.3 59.4782 45.1786 59.5594 45.0344C59.6405 44.8901 59.6831 44.7276 59.683 44.5625V27.125C59.683 26.96 59.6403 26.7978 59.5592 26.6537C59.478 26.5096 59.361 26.3884 59.2193 26.3016ZM45.9853 42.625C45.9838 43.9092 45.4678 45.1403 44.5507 46.0484C43.6336 46.9564 42.3902 47.4672 41.0933 47.4688H9.78417C8.48719 47.4672 7.24378 46.9564 6.32668 46.0484C5.40958 45.1403 4.89367 43.9092 4.89212 42.625V29.0625C4.89367 27.7783 5.40958 26.5472 6.32668 25.6392C7.24378 24.7311 8.48719 24.2203 9.78417 24.2188H41.0933C42.3902 24.2203 43.6336 24.7311 44.5507 25.6392C45.4678 26.5472 45.9838 27.7783 45.9853 29.0625V42.625ZM57.7262 42.9951L47.9421 38.1513V33.5362L57.7262 28.6924V42.9951ZM35.2228 20.3438C36.9644 20.3438 38.6669 19.8324 40.115 18.8744C41.5631 17.9164 42.6917 16.5547 43.3582 14.9615C44.0247 13.3684 44.1991 11.6153 43.8593 9.92406C43.5195 8.23279 42.6809 6.67926 41.4494 5.45992C40.2179 4.24058 38.6488 3.4102 36.9407 3.07378C35.2326 2.73737 33.462 2.91003 31.853 3.56993C30.244 4.22983 28.8687 5.34733 27.9011 6.78113C26.9336 8.21492 26.4171 9.9006 26.4171 11.625C26.4197 13.9366 27.3483 16.1527 28.9991 17.7873C30.6499 19.4218 32.8882 20.3412 35.2228 20.3438ZM35.2228 4.84375C36.5774 4.84375 37.9015 5.24147 39.0278 5.9866C40.1541 6.73173 41.032 7.79082 41.5503 9.02993C42.0687 10.269 42.2043 11.6325 41.9401 12.948C41.6758 14.2634 41.0235 15.4717 40.0657 16.4201C39.1079 17.3684 37.8875 18.0143 36.559 18.276C35.2304 18.5376 33.8533 18.4033 32.6019 17.8901C31.3504 17.3768 30.2807 16.5076 29.5282 15.3925C28.7756 14.2773 28.3739 12.9662 28.3739 11.625C28.376 9.82713 29.0983 8.10349 30.3822 6.8322C31.6662 5.56092 33.407 4.84581 35.2228 4.84375ZM15.6546 20.3438C17.0092 20.3438 18.3334 19.946 19.4596 19.2009C20.5859 18.4558 21.4638 17.3967 21.9821 16.1576C22.5005 14.9185 22.6362 13.555 22.3719 12.2395C22.1076 10.9241 21.4553 9.71581 20.4975 8.76744C19.5397 7.81906 18.3193 7.17321 16.9908 6.91155C15.6622 6.6499 14.2851 6.78419 13.0337 7.29745C11.7822 7.8107 10.7126 8.67987 9.96 9.79504C9.20744 10.9102 8.80576 12.2213 8.80576 13.5625C8.80783 15.3604 9.53007 17.084 10.814 18.3553C12.098 19.6266 13.8388 20.3417 15.6546 20.3438ZM15.6546 8.71875C16.6222 8.71875 17.568 9.00284 18.3725 9.53507C19.177 10.0673 19.804 10.8238 20.1743 11.7089C20.5446 12.594 20.6414 13.5679 20.4527 14.5075C20.2639 15.4471 19.798 16.3101 19.1138 16.9876C18.4297 17.665 17.558 18.1263 16.609 18.3132C15.66 18.5001 14.6764 18.4042 13.7825 18.0375C12.8886 17.6709 12.1246 17.0501 11.587 16.2535C11.0495 15.457 10.7626 14.5205 10.7626 13.5625C10.7641 12.2783 11.28 11.0472 12.1971 10.1392C13.1142 9.23111 14.3576 8.72029 15.6546 8.71875Z" fill="white"/>
</svg>
