<svg width="80" height="18" viewBox="0 0 80 18" fill="none" xmlns="http://www.w3.org/2000/svg">
<path d="M79.8042 10.1363C79.8042 11.1079 79.621 11.9275 79.2546 12.5951C78.8882 13.2599 78.3937 13.7642 77.7711 14.1079C77.1485 14.4488 76.4543 14.6193 75.6885 14.6193C74.9171 14.6193 74.2201 14.4474 73.5975 14.1037C72.9777 13.7571 72.4846 13.2514 72.1182 12.5866C71.7546 11.919 71.5728 11.1022 71.5728 10.1363C71.5728 9.16475 71.7546 8.34656 72.1182 7.68179C72.4846 7.01418 72.9777 6.50992 73.5975 6.16901C74.2201 5.82526 74.9171 5.65338 75.6885 5.65338C76.4543 5.65338 77.1485 5.82526 77.7711 6.16901C78.3937 6.50992 78.8882 7.01418 79.2546 7.68179C79.621 8.34656 79.8042 9.16475 79.8042 10.1363ZM77.4405 10.1363C77.4405 9.61361 77.373 9.17327 77.238 8.81531C77.1058 8.45452 76.9088 8.18179 76.6471 7.99713C76.3882 7.80963 76.0686 7.71588 75.6885 7.71588C75.3083 7.71588 74.9874 7.80963 74.7256 7.99713C74.4667 8.18179 74.2697 8.45452 74.1347 8.81531C74.0025 9.17327 73.9364 9.61361 73.9364 10.1363C73.9364 10.6591 74.0025 11.1008 74.1347 11.4616C74.2697 11.8196 74.4667 12.0923 74.7256 12.2798C74.9874 12.4645 75.3083 12.5568 75.6885 12.5568C76.0686 12.5568 76.3882 12.4645 76.6471 12.2798C76.9088 12.0923 77.1058 11.8196 77.238 11.4616C77.373 11.1008 77.4405 10.6591 77.4405 10.1363Z" fill="#FF3D00"/>
<path d="M62.8789 14.5V5.77271H65.1764V9.1818H68.2177V5.77271H70.5153V14.5H68.2177V11.0909H65.1764V14.5H62.8789Z" fill="#FF3D00"/>
<path d="M54.4697 5.77271H56.7672V10.3409H56.8334L59.8416 5.77271H61.792V14.5H59.4945V9.91475H59.4449L56.3871 14.5H54.4697V5.77271Z" fill="#FF3D00"/>
<path d="M50.9688 14.5L48.3737 10.9716H48.0514V14.5H45.7539V5.77271H48.0514V9.06248H48.3489L50.7787 5.77271H53.6713L50.4481 9.96589L53.8531 14.5H50.9688Z" fill="#FF3D00"/>
<path d="M44.6909 10.1363C44.6909 11.1079 44.5077 11.9275 44.1413 12.5951C43.7749 13.2599 43.2804 13.7642 42.6578 14.1079C42.0352 14.4488 41.341 14.6193 40.5752 14.6193C39.8038 14.6193 39.1069 14.4474 38.4843 14.1037C37.8644 13.7571 37.3713 13.2514 37.0049 12.5866C36.6413 11.919 36.4595 11.1022 36.4595 10.1363C36.4595 9.16475 36.6413 8.34656 37.0049 7.68179C37.3713 7.01418 37.8644 6.50992 38.4843 6.16901C39.1069 5.82526 39.8038 5.65338 40.5752 5.65338C41.341 5.65338 42.0352 5.82526 42.6578 6.16901C43.2804 6.50992 43.7749 7.01418 44.1413 7.68179C44.5077 8.34656 44.6909 9.16475 44.6909 10.1363ZM42.3272 10.1363C42.3272 9.61361 42.2597 9.17327 42.1248 8.81531C41.9925 8.45452 41.7956 8.18179 41.5339 7.99713C41.2749 7.80963 40.9553 7.71588 40.5752 7.71588C40.195 7.71588 39.8741 7.80963 39.6124 7.99713C39.3534 8.18179 39.1564 8.45452 39.0215 8.81531C38.8892 9.17327 38.8231 9.61361 38.8231 10.1363C38.8231 10.6591 38.8892 11.1008 39.0215 11.4616C39.1564 11.8196 39.3534 12.0923 39.6124 12.2798C39.8741 12.4645 40.195 12.5568 40.5752 12.5568C40.9553 12.5568 41.2749 12.4645 41.5339 12.2798C41.7956 12.0923 41.9925 11.8196 42.1248 11.4616C42.2597 11.1008 42.3272 10.6591 42.3272 10.1363Z" fill="white"/>
<path d="M28.856 14.5V5.77271H32.5089C33.1369 5.77271 33.6865 5.90055 34.1576 6.15623C34.6287 6.41191 34.9951 6.77128 35.2568 7.23435C35.5185 7.69742 35.6493 8.23861 35.6493 8.85793C35.6493 9.48293 35.5144 10.0241 35.2444 10.4815C34.9772 10.9389 34.6011 11.2912 34.1163 11.5383C33.6342 11.7855 33.0708 11.9091 32.4262 11.9091H30.2444V10.0682H31.9634C32.2334 10.0682 32.4634 10.0199 32.6535 9.92327C32.8463 9.82384 32.9937 9.68322 33.0956 9.5014C33.2003 9.31958 33.2527 9.10509 33.2527 8.85793C33.2527 8.60793 33.2003 8.39486 33.0956 8.21873C32.9937 8.03975 32.8463 7.90339 32.6535 7.80964C32.4634 7.71305 32.2334 7.66475 31.9634 7.66475H31.1535V14.5H28.856Z" fill="white"/>
<path d="M27.386 5.77271V14.5H25.1215V7.64771H22.262V14.5H19.9976V5.77271H27.386Z" fill="white"/>
<path d="M11.4549 6.75H2.72767C1.82393 6.75 1.09131 7.50552 1.09131 8.4375V12.375C1.09131 13.307 1.82393 14.0625 2.72767 14.0625H11.4549C12.3587 14.0625 13.0913 13.307 13.0913 12.375V8.4375C13.0913 7.50552 12.3587 6.75 11.4549 6.75Z" fill="#FF3D00"/>
<path d="M16.364 12.9375L13.0913 11.25V9.5625L16.364 7.875V12.9375Z" fill="#FF3D00"/>
<path d="M9.81854 5.625C11.0235 5.625 12.0004 4.61764 12.0004 3.375C12.0004 2.13236 11.0235 1.125 9.81854 1.125C8.61355 1.125 7.63672 2.13236 7.63672 3.375C7.63672 4.61764 8.61355 5.625 9.81854 5.625Z" fill="#FF3D00"/>
<path d="M4.3639 5.625C5.26764 5.625 6.00027 4.86948 6.00027 3.9375C6.00027 3.00552 5.26764 2.25 4.3639 2.25C3.46016 2.25 2.72754 3.00552 2.72754 3.9375C2.72754 4.86948 3.46016 5.625 4.3639 5.625Z" fill="#FF3D00"/>
<path d="M16.5073 7.63594C16.4677 7.6108 16.4226 7.59647 16.3761 7.5943C16.3297 7.59214 16.2835 7.60221 16.2419 7.62356L13.3638 9.10744V8.4375C13.3632 7.91554 13.1619 7.41513 12.804 7.04604C12.4461 6.67696 11.9609 6.46935 11.4547 6.46875H2.72745C2.22131 6.46935 1.73606 6.67696 1.37816 7.04604C1.02026 7.41513 0.818937 7.91554 0.818359 8.4375V12.375C0.818937 12.897 1.02026 13.3974 1.37816 13.7665C1.73606 14.1355 2.22131 14.3432 2.72745 14.3438H6.43272L4.171 16.6762C4.12132 16.7292 4.09383 16.8002 4.09445 16.874C4.09507 16.9477 4.12375 17.0183 4.17432 17.0704C4.22488 17.1226 4.29329 17.1521 4.3648 17.1528C4.4363 17.1534 4.5052 17.1251 4.55663 17.0738L7.09109 14.4602L9.62554 17.0738C9.67698 17.1251 9.74587 17.1534 9.81738 17.1528C9.88889 17.1521 9.95729 17.1226 10.0079 17.0704C10.0584 17.0183 10.0871 16.9477 10.0877 16.874C10.0883 16.8002 10.0609 16.7292 10.0112 16.6762L7.74945 14.3438H11.4547C11.9609 14.3432 12.4461 14.1355 12.804 13.7665C13.1619 13.3974 13.3632 12.897 13.3638 12.375V11.7051L16.2419 13.1892C16.2835 13.2107 16.3297 13.2208 16.3762 13.2186C16.4226 13.2164 16.4677 13.202 16.5073 13.1768C16.5468 13.1516 16.5795 13.1164 16.6021 13.0745C16.6247 13.0326 16.6366 12.9854 16.6365 12.9375V7.875C16.6365 7.8271 16.6246 7.78 16.602 7.73816C16.5794 7.69632 16.5468 7.66114 16.5073 7.63594ZM12.8184 12.375C12.8179 12.7478 12.6741 13.1053 12.4185 13.3689C12.1628 13.6325 11.8162 13.7808 11.4547 13.7813H2.72745C2.36592 13.7808 2.01933 13.6325 1.76369 13.3689C1.50805 13.1053 1.36425 12.7478 1.36381 12.375V8.4375C1.36425 8.06468 1.50805 7.70725 1.76369 7.44362C2.01933 7.18 2.36592 7.0317 2.72745 7.03125H11.4547C11.8162 7.0317 12.1628 7.18 12.4185 7.44362C12.6741 7.70725 12.8179 8.06468 12.8184 8.4375V12.375ZM16.0911 12.4824L13.3638 11.0762V9.73631L16.0911 8.33006V12.4824ZM9.81836 5.90625C10.3038 5.90625 10.7784 5.7578 11.182 5.47966C11.5857 5.20152 11.9003 4.80619 12.0861 4.34367C12.2718 3.88114 12.3205 3.37219 12.2257 2.88118C12.131 2.39016 11.8973 1.93914 11.554 1.58514C11.2107 1.23114 10.7734 0.990057 10.2972 0.892388C9.82108 0.79472 9.32756 0.844847 8.87905 1.03643C8.43054 1.22802 8.04719 1.55245 7.77748 1.96871C7.50777 2.38498 7.36381 2.87437 7.36381 3.375C7.36454 4.0461 7.62337 4.6895 8.08353 5.16404C8.54369 5.63858 9.1676 5.90551 9.81836 5.90625ZM9.81836 1.40625C10.1959 1.40625 10.565 1.52172 10.879 1.73805C11.1929 1.95437 11.4376 2.26185 11.5821 2.62159C11.7266 2.98134 11.7644 3.37719 11.6908 3.75909C11.6171 4.14099 11.4353 4.49178 11.1683 4.76712C10.9013 5.04245 10.5611 5.22996 10.1908 5.30592C9.82048 5.38189 9.43662 5.3429 9.08778 5.19389C8.73894 5.04488 8.44078 4.79254 8.23101 4.46878C8.02124 4.14502 7.90927 3.76438 7.90927 3.375C7.90985 2.85304 8.11117 2.35263 8.46907 1.98354C8.82697 1.61446 9.31221 1.40685 9.81836 1.40625ZM4.36381 5.90625C4.7414 5.90625 5.1105 5.79079 5.42445 5.57446C5.7384 5.35813 5.98309 5.05065 6.12758 4.69091C6.27208 4.33117 6.30989 3.93532 6.23622 3.55342C6.16256 3.17152 5.98074 2.82072 5.71375 2.54538C5.44675 2.27005 5.10659 2.08254 4.73626 2.00658C4.36593 1.93062 3.98208 1.9696 3.63324 2.11861C3.2844 2.26762 2.98624 2.51996 2.77646 2.84372C2.56669 3.16748 2.45472 3.54812 2.45472 3.9375C2.4553 4.45946 2.65662 4.95988 3.01452 5.32896C3.37242 5.69804 3.85767 5.90566 4.36381 5.90625ZM4.36381 2.53125C4.63352 2.53125 4.89716 2.61373 5.12141 2.76825C5.34566 2.92277 5.52044 3.14239 5.62365 3.39935C5.72686 3.65631 5.75387 3.93906 5.70125 4.21185C5.64863 4.48463 5.51876 4.7352 5.32805 4.93187C5.13734 5.12854 4.89437 5.26247 4.62985 5.31673C4.36533 5.37099 4.09115 5.34314 3.84197 5.23671C3.5928 5.13027 3.37983 4.95003 3.22999 4.71877C3.08015 4.48751 3.00018 4.21563 3.00018 3.9375C3.00061 3.56468 3.14442 3.20725 3.40006 2.94363C3.65569 2.68 4.00229 2.5317 4.36381 2.53125Z" fill="white"/>
</svg>
