<svg width="130" height="28" viewBox="0 0 130 28" fill="none" xmlns="http://www.w3.org/2000/svg">
<path d="M129.682 15.7677C129.682 17.279 129.384 18.554 128.789 19.5925C128.194 20.6266 127.39 21.411 126.378 21.9457C125.367 22.476 124.239 22.7412 122.994 22.7412C121.741 22.7412 120.608 22.4738 119.596 21.9391C118.589 21.3999 117.788 20.6133 117.193 19.5792C116.602 18.5407 116.306 17.2702 116.306 15.7677C116.306 14.2563 116.602 12.9836 117.193 11.9495C117.788 10.911 118.589 10.1266 119.596 9.59627C120.608 9.06155 121.741 8.79419 122.994 8.79419C124.239 8.79419 125.367 9.06155 126.378 9.59627C127.39 10.1266 128.194 10.911 128.789 11.9495C129.384 12.9836 129.682 14.2563 129.682 15.7677ZM125.841 15.7677C125.841 14.9545 125.732 14.2696 125.512 13.7128C125.297 13.1515 124.977 12.7273 124.552 12.44C124.131 12.1484 123.612 12.0025 122.994 12.0025C122.376 12.0025 121.855 12.1484 121.43 12.44C121.009 12.7273 120.689 13.1515 120.469 13.7128C120.255 14.2696 120.147 14.9545 120.147 15.7677C120.147 16.5808 120.255 17.268 120.469 17.8292C120.689 18.386 121.009 18.8103 121.43 19.102C121.855 19.3892 122.376 19.5328 122.994 19.5328C123.612 19.5328 124.131 19.3892 124.552 19.102C124.977 18.8103 125.297 18.386 125.512 17.8292C125.732 17.268 125.841 16.5808 125.841 15.7677Z" fill="#FF3D00"/>
<path d="M102.178 22.5556V8.9798H105.911V14.2828H110.854V8.9798H114.587V22.5556H110.854V17.2525H105.911V22.5556H102.178Z" fill="#FF3D00"/>
<path d="M88.5132 8.9798H92.2467V16.0859H92.3541L97.2425 8.9798H100.412V22.5556H96.6785V15.423H96.5979L91.6289 22.5556H88.5132V8.9798Z" fill="#FF3D00"/>
<path d="M82.824 22.5556L78.6071 17.0669H78.0833V22.5556H74.3499V8.9798H78.0833V14.0972H78.5668L82.5151 8.9798H87.2156L81.978 15.5025L87.511 22.5556H82.824Z" fill="#FF3D00"/>
<path d="M72.376 15.9735C72.376 17.4848 72.0783 18.7598 71.483 19.7983C70.8876 20.8324 70.084 21.6168 69.0723 22.1515C68.0606 22.6818 66.9325 22.947 65.688 22.947C64.4346 22.947 63.302 22.6796 62.2903 22.1449C61.2831 21.6057 60.4817 20.8191 59.8864 19.785C59.2955 18.7465 59 17.476 59 15.9735C59 14.4621 59.2955 13.1894 59.8864 12.1553C60.4817 11.1168 61.2831 10.3324 62.2903 9.80208C63.302 9.26736 64.4346 9 65.688 9C66.9325 9 68.0606 9.26736 69.0723 9.80208C70.084 10.3324 70.8876 11.1168 71.483 12.1553C72.0783 13.1894 72.376 14.4621 72.376 15.9735ZM68.5351 15.9735C68.5351 15.1604 68.4254 14.4754 68.2061 13.9186C67.9912 13.3573 67.6711 12.9331 67.2459 12.6458C66.8251 12.3542 66.3058 12.2083 65.688 12.2083C65.0702 12.2083 64.5487 12.3542 64.1234 12.6458C63.7026 12.9331 63.3826 13.3573 63.1632 13.9186C62.9483 14.4754 62.8409 15.1604 62.8409 15.9735C62.8409 16.7866 62.9483 17.4738 63.1632 18.035C63.3826 18.5919 63.7026 19.0161 64.1234 19.3078C64.5487 19.595 65.0702 19.7386 65.688 19.7386C66.3058 19.7386 66.8251 19.595 67.2459 19.3078C67.6711 19.0161 67.9912 18.5919 68.2061 18.035C68.4254 17.4738 68.5351 16.7866 68.5351 15.9735Z" fill="white"/>
<path d="M47 22.5758V9H52.936C53.9566 9 54.8497 9.19886 55.6152 9.59659C56.3807 9.99432 56.9761 10.5533 57.4013 11.2737C57.8266 11.994 58.0393 12.8359 58.0393 13.7992C58.0393 14.7715 57.8199 15.6133 57.3812 16.3248C56.947 17.0363 56.3359 17.5843 55.548 17.9688C54.7646 18.3532 53.8492 18.5455 52.8017 18.5455H49.2562V15.6818H52.0496C52.4883 15.6818 52.8621 15.6067 53.171 15.4564C53.4843 15.3018 53.7238 15.083 53.8895 14.8002C54.0596 14.5174 54.1446 14.1837 54.1446 13.7992C54.1446 13.4104 54.0596 13.0789 53.8895 12.8049C53.7238 12.5265 53.4843 12.3144 53.171 12.1686C52.8621 12.0183 52.4883 11.9432 52.0496 11.9432H50.7335V22.5758H47Z" fill="white"/>
<path d="M44.5023 8.9798V22.5556H40.8225V11.8965H36.1758V22.5556H32.4961V8.9798H44.5023Z" fill="white"/>
<path d="M18.6136 10.5H4.4318C2.96322 10.5 1.77271 11.6753 1.77271 13.125V19.25C1.77271 20.6997 2.96322 21.875 4.4318 21.875H18.6136C20.0822 21.875 21.2727 20.6997 21.2727 19.25V13.125C21.2727 11.6753 20.0822 10.5 18.6136 10.5Z" fill="#FF3D00"/>
<path d="M26.5909 20.125L21.2727 17.5V14.875L26.5909 12.25V20.125Z" fill="#FF3D00"/>
<path d="M15.9546 8.75C17.9127 8.75 19.5001 7.183 19.5001 5.25C19.5001 3.317 17.9127 1.75 15.9546 1.75C13.9965 1.75 12.4092 3.317 12.4092 5.25C12.4092 7.183 13.9965 8.75 15.9546 8.75Z" fill="#FF3D00"/>
<path d="M7.09098 8.75C8.55955 8.75 9.75007 7.57475 9.75007 6.125C9.75007 4.67525 8.55955 3.5 7.09098 3.5C5.6224 3.5 4.43188 4.67525 4.43188 6.125C4.43188 7.57475 5.6224 8.75 7.09098 8.75Z" fill="#FF3D00"/>
<path d="M26.8241 11.8781C26.7598 11.839 26.6864 11.8167 26.611 11.8134C26.5355 11.81 26.4605 11.8257 26.3929 11.8589L21.716 14.1671V13.125C21.715 12.3131 21.3879 11.5346 20.8063 10.9605C20.2247 10.3864 19.4362 10.0634 18.6137 10.0625H4.43186C3.60938 10.0634 2.82085 10.3864 2.23926 10.9605C1.65768 11.5346 1.33053 12.3131 1.32959 13.125V19.25C1.33053 20.0619 1.65768 20.8404 2.23926 21.4145C2.82085 21.9886 3.60938 22.3116 4.43186 22.3125H10.4529L6.77762 25.9407C6.6969 26.0232 6.65223 26.1337 6.65323 26.2484C6.65424 26.3631 6.70085 26.4729 6.78302 26.554C6.86519 26.6351 6.97635 26.6811 7.09255 26.6821C7.20875 26.6831 7.3207 26.639 7.40428 26.5593L11.5228 22.4936L15.6413 26.5593C15.7248 26.639 15.8368 26.6831 15.953 26.6821C16.0692 26.6811 16.1804 26.6351 16.2625 26.554C16.3447 26.4729 16.3913 26.3631 16.3923 26.2484C16.3933 26.1337 16.3486 26.0232 16.2679 25.9407L12.5926 22.3125H18.6137C19.4362 22.3116 20.2247 21.9886 20.8063 21.4145C21.3879 20.8404 21.715 20.0619 21.716 19.25V18.2079L26.3929 20.5166C26.4604 20.5499 26.5355 20.5656 26.611 20.5623C26.6865 20.5589 26.7598 20.5365 26.8241 20.4973C26.8883 20.4581 26.9414 20.4033 26.9781 20.3381C27.0149 20.2729 27.0342 20.1996 27.0341 20.125V12.25C27.0341 12.1755 27.0148 12.1022 26.978 12.0371C26.9413 11.9721 26.8883 11.9173 26.8241 11.8781ZM20.8296 19.25C20.8289 19.83 20.5952 20.3859 20.1798 20.796C19.7644 21.2061 19.2012 21.4368 18.6137 21.4375H4.43186C3.84438 21.4368 3.28117 21.2061 2.86576 20.796C2.45034 20.3859 2.21666 19.83 2.21595 19.25V13.125C2.21666 12.5451 2.45034 11.9891 2.86576 11.579C3.28117 11.1689 3.84438 10.9382 4.43186 10.9375H18.6137C19.2012 10.9382 19.7644 11.1689 20.1798 11.579C20.5952 11.9891 20.8289 12.5451 20.8296 13.125V19.25ZM26.1478 19.4171L21.716 17.2296V15.1454L26.1478 12.9579V19.4171ZM15.9546 9.1875C16.7435 9.1875 17.5146 8.95657 18.1706 8.52391C18.8265 8.09126 19.3377 7.4763 19.6396 6.75682C19.9415 6.03733 20.0205 5.24563 19.8666 4.48183C19.7127 3.71803 19.3328 3.01644 18.775 2.46577C18.2172 1.9151 17.5065 1.54009 16.7327 1.38816C15.959 1.23623 15.157 1.31421 14.4282 1.61223C13.6994 1.91025 13.0764 2.41493 12.6382 3.06244C12.1999 3.70996 11.966 4.47124 11.966 5.25C11.9671 6.29394 12.3877 7.29478 13.1355 8.03296C13.8833 8.77113 14.8971 9.18634 15.9546 9.1875ZM15.9546 2.1875C16.5682 2.1875 17.168 2.36711 17.6781 2.70363C18.1883 3.04014 18.5859 3.51844 18.8207 4.07803C19.0555 4.63763 19.117 5.2534 18.9973 5.84747C18.8776 6.44153 18.5821 6.98722 18.1482 7.41552C17.7144 7.84381 17.1616 8.13549 16.5598 8.25366C15.958 8.37182 15.3343 8.31118 14.7674 8.07938C14.2005 7.84759 13.716 7.45506 13.3751 6.95144C13.0343 6.44781 12.8523 5.85571 12.8523 5.25C12.8533 4.43806 13.1804 3.65964 13.762 3.08551C14.3436 2.51138 15.1321 2.18843 15.9546 2.1875ZM7.09095 9.1875C7.70453 9.1875 8.30432 9.00789 8.81448 8.67138C9.32465 8.33487 9.72228 7.85657 9.95708 7.29697C10.1919 6.73737 10.2533 6.1216 10.1336 5.52754C10.0139 4.93347 9.71845 4.38779 9.28459 3.95949C8.85073 3.53119 8.29796 3.23951 7.69618 3.12135C7.0944 3.00318 6.47063 3.06383 5.90376 3.29562C5.3369 3.52741 4.85239 3.91994 4.51151 4.42357C4.17063 4.92719 3.98868 5.5193 3.98868 6.125C3.98962 6.93694 4.31677 7.71536 4.89835 8.28949C5.47994 8.86362 6.26847 9.18658 7.09095 9.1875ZM7.09095 3.9375C7.52922 3.9375 7.95764 4.0658 8.32205 4.30616C8.68645 4.54653 8.97047 4.88817 9.13819 5.28788C9.3059 5.6876 9.34979 6.12743 9.26429 6.55176C9.17878 6.9761 8.96774 7.36587 8.65784 7.6718C8.34794 7.97773 7.9531 8.18606 7.52326 8.27047C7.09341 8.35488 6.64787 8.31155 6.24296 8.14599C5.83806 7.98042 5.49198 7.70004 5.24849 7.34031C5.00501 6.98058 4.87504 6.55765 4.87504 6.125C4.87575 5.54505 5.10944 4.98906 5.52485 4.57897C5.94026 4.16889 6.50347 3.9382 7.09095 3.9375Z" fill="white"/>
</svg>
