<svg width="18" height="18" viewBox="0 0 18 18" fill="none" xmlns="http://www.w3.org/2000/svg">
<path d="M11.4549 6.75H2.72767C1.82393 6.75 1.09131 7.50552 1.09131 8.4375V12.375C1.09131 13.307 1.82393 14.0625 2.72767 14.0625H11.4549C12.3587 14.0625 13.0913 13.307 13.0913 12.375V8.4375C13.0913 7.50552 12.3587 6.75 11.4549 6.75Z" fill="#FF3D00"/>
<path d="M16.364 12.9375L13.0913 11.25V9.5625L16.364 7.875V12.9375Z" fill="#FF3D00"/>
<path d="M9.81854 5.625C11.0235 5.625 12.0004 4.61764 12.0004 3.375C12.0004 2.13236 11.0235 1.125 9.81854 1.125C8.61355 1.125 7.63672 2.13236 7.63672 3.375C7.63672 4.61764 8.61355 5.625 9.81854 5.625Z" fill="#FF3D00"/>
<path d="M4.3639 5.625C5.26764 5.625 6.00027 4.86948 6.00027 3.9375C6.00027 3.00552 5.26764 2.25 4.3639 2.25C3.46016 2.25 2.72754 3.00552 2.72754 3.9375C2.72754 4.86948 3.46016 5.625 4.3639 5.625Z" fill="#FF3D00"/>
<path d="M16.5073 7.63594C16.4677 7.6108 16.4226 7.59647 16.3761 7.5943C16.3297 7.59214 16.2835 7.60221 16.2419 7.62356L13.3638 9.10744V8.4375C13.3632 7.91554 13.1619 7.41513 12.804 7.04604C12.4461 6.67696 11.9609 6.46935 11.4547 6.46875H2.72745C2.22131 6.46935 1.73606 6.67696 1.37816 7.04604C1.02026 7.41513 0.818937 7.91554 0.818359 8.4375V12.375C0.818937 12.897 1.02026 13.3974 1.37816 13.7665C1.73606 14.1355 2.22131 14.3432 2.72745 14.3438H6.43272L4.171 16.6762C4.12132 16.7292 4.09383 16.8002 4.09445 16.874C4.09507 16.9477 4.12375 17.0183 4.17432 17.0704C4.22488 17.1226 4.29329 17.1521 4.3648 17.1528C4.4363 17.1534 4.5052 17.1251 4.55663 17.0738L7.09109 14.4602L9.62554 17.0738C9.67698 17.1251 9.74587 17.1534 9.81738 17.1528C9.88889 17.1521 9.95729 17.1226 10.0079 17.0704C10.0584 17.0183 10.0871 16.9477 10.0877 16.874C10.0883 16.8002 10.0609 16.7292 10.0112 16.6762L7.74945 14.3438H11.4547C11.9609 14.3432 12.4461 14.1355 12.804 13.7665C13.1619 13.3974 13.3632 12.897 13.3638 12.375V11.7051L16.2419 13.1892C16.2835 13.2107 16.3297 13.2208 16.3762 13.2186C16.4226 13.2164 16.4677 13.202 16.5073 13.1768C16.5468 13.1516 16.5795 13.1164 16.6021 13.0745C16.6247 13.0326 16.6366 12.9854 16.6365 12.9375V7.875C16.6365 7.8271 16.6246 7.78 16.602 7.73816C16.5794 7.69632 16.5468 7.66114 16.5073 7.63594ZM12.8184 12.375C12.8179 12.7478 12.6741 13.1053 12.4185 13.3689C12.1628 13.6325 11.8162 13.7808 11.4547 13.7813H2.72745C2.36592 13.7808 2.01933 13.6325 1.76369 13.3689C1.50805 13.1053 1.36425 12.7478 1.36381 12.375V8.4375C1.36425 8.06468 1.50805 7.70725 1.76369 7.44362C2.01933 7.18 2.36592 7.0317 2.72745 7.03125H11.4547C11.8162 7.0317 12.1628 7.18 12.4185 7.44362C12.6741 7.70725 12.8179 8.06468 12.8184 8.4375V12.375ZM16.0911 12.4824L13.3638 11.0762V9.73631L16.0911 8.33006V12.4824ZM9.81836 5.90625C10.3038 5.90625 10.7784 5.7578 11.182 5.47966C11.5857 5.20152 11.9003 4.80619 12.0861 4.34367C12.2718 3.88114 12.3205 3.37219 12.2257 2.88118C12.131 2.39016 11.8973 1.93914 11.554 1.58514C11.2107 1.23114 10.7734 0.990057 10.2972 0.892388C9.82108 0.79472 9.32756 0.844847 8.87905 1.03643C8.43054 1.22802 8.04719 1.55245 7.77748 1.96871C7.50777 2.38498 7.36381 2.87437 7.36381 3.375C7.36454 4.0461 7.62337 4.6895 8.08353 5.16404C8.54369 5.63858 9.1676 5.90551 9.81836 5.90625ZM9.81836 1.40625C10.1959 1.40625 10.565 1.52172 10.879 1.73805C11.1929 1.95437 11.4376 2.26185 11.5821 2.62159C11.7266 2.98134 11.7644 3.37719 11.6908 3.75909C11.6171 4.14099 11.4353 4.49178 11.1683 4.76712C10.9013 5.04245 10.5611 5.22996 10.1908 5.30592C9.82048 5.38189 9.43662 5.3429 9.08778 5.19389C8.73894 5.04488 8.44078 4.79254 8.23101 4.46878C8.02124 4.14502 7.90927 3.76438 7.90927 3.375C7.90985 2.85304 8.11117 2.35263 8.46907 1.98354C8.82697 1.61446 9.31221 1.40685 9.81836 1.40625ZM4.36381 5.90625C4.7414 5.90625 5.1105 5.79079 5.42445 5.57446C5.7384 5.35813 5.98309 5.05065 6.12758 4.69091C6.27208 4.33117 6.30989 3.93532 6.23622 3.55342C6.16256 3.17152 5.98074 2.82072 5.71375 2.54538C5.44675 2.27005 5.10659 2.08254 4.73626 2.00658C4.36593 1.93062 3.98208 1.9696 3.63324 2.11861C3.2844 2.26762 2.98624 2.51996 2.77646 2.84372C2.56669 3.16748 2.45472 3.54812 2.45472 3.9375C2.4553 4.45946 2.65662 4.95988 3.01452 5.32896C3.37242 5.69804 3.85767 5.90566 4.36381 5.90625ZM4.36381 2.53125C4.63352 2.53125 4.89716 2.61373 5.12141 2.76825C5.34566 2.92277 5.52044 3.14239 5.62365 3.39935C5.72686 3.65631 5.75387 3.93906 5.70125 4.21185C5.64863 4.48463 5.51876 4.7352 5.32805 4.93187C5.13734 5.12854 4.89437 5.26247 4.62985 5.31673C4.36533 5.37099 4.09115 5.34314 3.84197 5.23671C3.5928 5.13027 3.37983 4.95003 3.22999 4.71877C3.08015 4.48751 3.00018 4.21563 3.00018 3.9375C3.00061 3.56468 3.14442 3.20725 3.40006 2.94363C3.65569 2.68 4.00229 2.5317 4.36381 2.53125Z" fill="white"/>
</svg>
